<?xml version="1.0" standalone="no"?><!-- Generator: Gravit.io --><svg xmlns="http://www.w3.org/2000/svg" xmlns:xlink="http://www.w3.org/1999/xlink" style="isolation:isolate" viewBox="0 0 65.492 123.358" width="65.492" height="123.358"><defs><clipPath id="_clipPath_f583ZFfHPYybMgwXZXG8c9teiBO9vQFn"><rect width="65.492" height="123.358"/></clipPath></defs><g clip-path="url(#_clipPath_f583ZFfHPYybMgwXZXG8c9teiBO9vQFn)"><g><g><path d=" M 65.161 43.091 C 65.383 42.794 65.492 42.442 65.492 42.097 C 65.492 41.745 65.378 41.388 65.15 41.091 L 34.054 0.643 C 33.742 0.237 33.256 0 32.747 0 C 32.234 0 31.75 0.239 31.436 0.643 L 0.343 41.09 C -0.112 41.68 -0.114 42.495 0.334 43.091 C 0.779 43.681 1.566 43.902 2.256 43.631 L 22.846 35.498 L 22.846 121.708 C 22.846 122.622 23.584 123.358 24.495 123.358 L 40.996 123.358 C 41.907 123.358 42.647 122.622 42.647 121.708 L 42.647 35.498 L 63.237 43.631 C 63.925 43.902 64.711 43.68 65.161 43.091 Z " fill="rgb(0,0,0)"/></g></g></g></svg>