<?xml version="1.0" standalone="no"?><!-- Generator: Gravit.io --><svg xmlns="http://www.w3.org/2000/svg" xmlns:xlink="http://www.w3.org/1999/xlink" style="isolation:isolate" viewBox="0 0 65.492 123.358" width="65.492" height="123.358"><defs><clipPath id="_clipPath_SDK7jcufiwZNkxPa0N26w1e9UKFCNL1d"><rect width="65.492" height="123.358"/></clipPath></defs><g clip-path="url(#_clipPath_SDK7jcufiwZNkxPa0N26w1e9UKFCNL1d)"><g><g><path d=" M 0.331 80.267 C 0.108 80.564 0 80.915 0 81.261 C 0 81.613 0.113 81.97 0.342 82.267 L 31.437 122.715 C 31.75 123.121 32.236 123.358 32.745 123.358 C 33.258 123.358 33.741 123.119 34.055 122.715 L 65.149 82.268 C 65.603 81.678 65.605 80.863 65.158 80.267 C 64.712 79.677 63.926 79.456 63.236 79.727 L 42.645 87.86 L 42.645 1.65 C 42.645 0.736 41.908 0 40.997 0 L 24.495 0 C 23.585 0 22.844 0.736 22.844 1.65 L 22.844 87.86 L 2.255 79.727 C 1.566 79.456 0.781 79.678 0.331 80.267 Z " fill="rgb(0,0,0)"/></g></g></g></svg>